<svg width="38" height="43" viewBox="0 0 38 43" fill="none" xmlns="http://www.w3.org/2000/svg">
<g clip-path="url(#clip0_21_91)">
<path d="M13.5121 0.453317C14.1737 -0.159768 15.2 -0.15137 15.8616 0.461716C18.2027 2.63691 20.3996 4.98007 22.4522 7.5164C23.3853 6.30703 24.4455 4.98847 25.5906 3.91347C26.2607 3.29199 27.2955 3.29199 27.9656 3.92187C30.9004 6.69336 33.3857 10.3551 35.133 13.832C36.8549 17.2586 38 20.7607 38 23.2299C38 33.9463 29.5348 42.9998 19 42.9998C8.34643 42.9998 0 33.9379 0 23.2215C0 19.9965 1.50982 16.0576 3.85089 12.1607C6.21741 8.20508 9.55937 4.08144 13.5121 0.453317ZM19.1442 34.9373C21.2902 34.9373 23.1902 34.3494 24.9799 33.1736C28.5509 30.7045 29.5094 25.7662 27.3634 21.8861C26.9817 21.1303 26.0063 21.0799 25.4549 21.7182L23.3174 24.1789C22.7576 24.8172 21.7482 24.8004 21.2223 24.1369C19.8228 22.3732 17.3205 19.2238 15.8955 17.435C15.3612 16.7631 14.3433 16.7547 13.8004 17.4266C10.9335 20.9959 9.49152 23.2467 9.49152 25.7746C9.5 31.5275 13.792 34.9373 19.1442 34.9373Z" fill="#FDE047"/>
</g>
<defs>
<clipPath id="clip0_21_91">
<path d="M0 0H38V43H0V0Z" fill="white"/>
</clipPath>
</defs>
</svg>
